# xmcd
#
# Track frame offsets:
#  150
#  15469
#  34690
#  43048
#  55468
#  70236
#  83114
#  96567
#  108453
#  124208
#  137889
#  151475
#  163893
#  175477
#  191332
#  201898
#
# Disc length: 2935 seconds
#
# Revision: 0
# Processed by: cddbd v1.4PL0 Copyright (c) Steve Scherf et al.
# Submitted via: AltoMP3_Maker 3.0
#
DISCID=e70b7510
DTITLE=TO NEO KYMA - TO NEO KYMA CD3
DYEAR=1900
DGENRE=
TTITLE0=TO AGALMA
TTITLE1=SKLHRO MOY AGORI
TTITLE2=OI MAGOI
TTITLE3=EIXA ENA AGORI
TTITLE4=TO DELFINOKORITSO
TTITLE5=MIKRO PAIDI
TTITLE6=MH MOY THYMWNEIS MATIA MOY
TTITLE7=H ELENH STO MPALKONI
TTITLE8=KI YSTERA MOY MILAS
TTITLE9=DYO PALHKARIA
TTITLE10=SE PSAXNW
TTITLE11=ELA NA SMIXOYMEN TA DYO
TTITLE12=TA KARABAKIA
TTITLE13=NANI TO GARYFALO MOY
TTITLE14=DEN EXEI ASTERIA O OYRANOS
TTITLE15=KATW STO DAFNOPOTAMO
EXTD=
EXTT0=
EXTT1=
EXTT2=
EXTT3=
EXTT4=
EXTT5=
EXTT6=
EXTT7=
EXTT8=
EXTT9=
EXTT10=
EXTT11=
EXTT12=
EXTT13=
EXTT14=
EXTT15=
PLAYORDER=
